<svg xmlns="http://www.w3.org/2000/svg" xmlns:xlink="http://www.w3.org/1999/xlink" version="1.1" width="256" height="256" viewBox="0 0 256 256" xml:space="preserve">
<desc>Created with Fabric.js 1.7.22</desc>
<defs>
</defs>
<g transform="translate(128 128) scale(0.87 0.87)" style="">
	<g style="stroke: none; stroke-width: 0; stroke-dasharray: none; stroke-linecap: butt; stroke-linejoin: miter; stroke-miterlimit: 10; fill: none; fill-rule: nonzero; opacity: 1;" transform="translate(-144.89999999999998 -144.90000000000003) scale(3.22 3.22)" >
	<polyline points="63.93,53.88 62.83,68.3 46.39,89.9 44.44,68.3 " style="stroke: none; stroke-width: 1; stroke-dasharray: none; stroke-linecap: butt; stroke-linejoin: miter; stroke-miterlimit: 10; fill: rgb(114,113,113); fill-rule: nonzero; opacity: 1;" transform="  matrix(1 0 0 1 0 0) "/>
	<polyline points="36.18,25.97 21.6,27.07 0,43.51 21.22,45.6 " style="stroke: none; stroke-width: 1; stroke-dasharray: none; stroke-linecap: butt; stroke-linejoin: miter; stroke-miterlimit: 10; fill: rgb(114,113,113); fill-rule: nonzero; opacity: 1;" transform="  matrix(1 0 0 1 0 0) "/>
	<path d="M 21.218 45.604 c 4.339 -7.358 10.406 -15.177 17.856 -22.626 C 58.903 3.149 74.669 -0.958 89.792 0.304 c 1.263 15.123 -2.845 30.889 -22.674 50.718 c -7.45 7.45 -15.268 13.517 -22.626 17.856 L 21.218 45.604 z" style="stroke: none; stroke-width: 1; stroke-dasharray: none; stroke-linecap: butt; stroke-linejoin: miter; stroke-miterlimit: 10; fill: rgb(221,212,212); fill-rule: nonzero; opacity: 1;" transform=" matrix(1 0 0 1 0 0) " stroke-linecap="round" />
	<path d="M 55.168 61.575 c -3.603 2.793 -7.191 5.248 -10.676 7.302 L 21.218 45.604 c 2.055 -3.485 4.509 -7.073 7.302 -10.676 L 55.168 61.575 z" style="stroke: none; stroke-width: 1; stroke-dasharray: none; stroke-linecap: butt; stroke-linejoin: miter; stroke-miterlimit: 10; fill: rgb(206,39,0); fill-rule: nonzero; opacity: 1;" transform=" matrix(1 0 0 1 0 0) " stroke-linecap="round" />
	<path d="M 83.103 30.651 L 59.445 6.993 c 10.949 -6.122 20.778 -7.488 30.347 -6.689 C 90.591 9.872 89.225 19.702 83.103 30.651 z" style="stroke: none; stroke-width: 1; stroke-dasharray: none; stroke-linecap: butt; stroke-linejoin: miter; stroke-miterlimit: 10; fill: rgb(206,39,0); fill-rule: nonzero; opacity: 1;" transform=" matrix(1 0 0 1 0 0) " stroke-linecap="round" />
	<path d="M 32.855 57.241 c -2.647 -2.647 -7.773 -1.812 -11.45 1.865 c -1.044 1.044 -1.859 2.205 -2.43 3.393 l 0 0 c -1.038 2.198 -3.669 8.797 -6.032 14.654 c 5.857 -2.363 12.455 -4.994 14.654 -6.032 l 0 0 c 1.188 -0.571 2.349 -1.386 3.393 -2.43 C 34.667 65.014 35.502 59.888 32.855 57.241 z" style="stroke: none; stroke-width: 1; stroke-dasharray: none; stroke-linecap: butt; stroke-linejoin: miter; stroke-miterlimit: 10; fill: rgb(238,180,0); fill-rule: nonzero; opacity: 1;" transform=" matrix(1 0 0 1 0 0) " stroke-linecap="round" />
	<path d="M 65.64 24.456 c -3.595 -3.595 -9.423 -3.595 -13.017 0 c -3.595 3.595 -3.595 9.423 0 13.017 s 9.423 3.595 13.017 0 C 69.234 33.879 69.234 28.051 65.64 24.456 z" style="stroke: none; stroke-width: 1; stroke-dasharray: none; stroke-linecap: butt; stroke-linejoin: miter; stroke-miterlimit: 10; fill: rgb(114,113,113); fill-rule: nonzero; opacity: 1;" transform=" matrix(1 0 0 1 0 0) " stroke-linecap="round" />
	<path d="M 62.747 34.581 c -1.997 1.997 -5.235 1.997 -7.232 0 c -1.997 -1.997 -1.997 -5.235 0 -7.232 c 1.997 -1.997 5.235 -1.997 7.232 0 C 64.744 29.346 64.744 32.584 62.747 34.581 z" style="stroke: none; stroke-width: 1; stroke-dasharray: none; stroke-linecap: butt; stroke-linejoin: miter; stroke-miterlimit: 10; fill: rgb(255,255,255); fill-rule: nonzero; opacity: 1;" transform=" matrix(1 0 0 1 0 0) " stroke-linecap="round" />
</g>
</g>
</svg>